<svg width="119" height="50" viewBox="0 0 119 50" fill="none" xmlns="http://www.w3.org/2000/svg">
<g clip-path="url(#clip0_5734_7601)">
<path d="M55.9366 24.9031C54.9853 25.5105 53.8789 25.8275 52.7517 25.8155C51.9639 25.8238 51.1829 25.6685 50.4576 25.3593V28.073C50.0605 27.5449 49.5503 27.113 48.9648 26.8094C48.3793 26.5057 47.7334 26.3379 47.0748 26.3185C42.8127 26.3185 41.427 30.9973 41.427 35.413C41.427 39.6883 42.8418 44.332 46.9118 44.332C48.6585 44.332 49.8754 43.5834 50.6789 41.6885H50.7546V43.9811H55.9599V25.4763L55.9366 24.9031ZM50.1141 38.9397C50.023 39.1926 49.8582 39.4121 49.6412 39.5696C49.4241 39.7271 49.1649 39.8154 48.8972 39.8228C47.1796 39.8228 47.0981 37.1091 47.0981 35.5826C47.107 34.5027 47.2005 33.4252 47.3776 32.36C47.5406 31.3073 47.9598 30.5294 48.9263 30.5294C49.162 30.5332 49.3927 30.5976 49.5965 30.7163C49.8004 30.8351 49.9705 31.0043 50.0908 31.2079C50.3878 31.8421 50.5046 32.5464 50.4285 33.2432V36.7523C50.5198 37.4922 50.4133 38.2431 50.1199 38.928L50.1141 38.9397Z" fill="#003368"/>
<path d="M71.5409 40.1854V34.1088C71.5409 31.6348 71.7622 29.3948 69.9048 27.804C69.6697 27.6031 69.4163 27.4249 69.1479 27.2718C68.0931 28.0606 66.806 28.4724 65.4913 28.4415C63.0634 28.4415 61.4622 28.114 60.6004 27.4414L60.4258 27.301V27.2601C59.6042 27.7176 58.8995 28.3603 58.3671 29.1377C57.8346 29.915 57.489 30.8059 57.3573 31.7401L62.3996 32.325C62.3991 32.0488 62.4562 31.7756 62.5673 31.5229C62.6783 31.2703 62.8408 31.0438 63.0444 30.8581C63.2479 30.6724 63.4879 30.5316 63.7489 30.4448C64.0099 30.358 64.2861 30.327 64.5597 30.354C65.8873 30.354 66.225 30.9389 66.225 32.5297V32.6934C64.326 32.7833 62.4496 33.1457 60.6528 33.7696C59.5551 34.1616 58.607 34.8891 57.9419 35.8499C57.2767 36.8107 56.9277 37.9566 56.9439 39.1268C56.9439 42.5892 59.2729 44.3496 61.8756 44.3496C62.829 44.3939 63.7745 44.1573 64.5959 43.6689C65.4172 43.1805 66.0786 42.4617 66.4986 41.6008C66.4944 42.408 66.5587 43.2141 66.6908 44.0104H71.9834C71.6266 42.7687 71.477 41.4762 71.5409 40.1854ZM66.225 36.2026C66.225 38.1033 66.225 40.2381 64.1172 40.2381C63.2613 40.2381 62.6791 39.7643 62.6791 38.6414C62.6791 36.5418 64.8916 36.033 66.225 35.8633V36.2026Z" fill="#003368"/>
<path d="M9.17042 26.3069C7.28393 26.3069 5.73515 27.0204 5.1529 29.1259H5.1005V26.6461H0V49.4555H5.48478V42.1155C5.8321 42.7864 6.3576 43.3475 7.00302 43.7367C7.64844 44.1259 8.38856 44.328 9.1413 44.3204C11.1093 44.3204 12.5766 43.0338 13.4907 40.9634C14.2029 39.0987 14.5412 37.1112 14.4863 35.1148C14.4863 31.0617 13.153 26.3069 9.17042 26.3069ZM8.50083 38.6239C8.27958 39.5422 7.78467 40.0451 7.01027 40.0451C5.67693 40.0451 5.51389 38.4543 5.51389 37.232V33.0912C5.43686 32.4858 5.55307 31.8715 5.84578 31.3366C5.97655 31.1225 6.15847 30.9445 6.37503 30.8189C6.5916 30.6933 6.83597 30.624 7.08597 30.6172C8.83271 30.6172 8.8036 34.0445 8.8036 35.4657C8.81703 36.5264 8.7155 37.5853 8.50083 38.6239Z" fill="#003368"/>
<path d="M20.0876 30.2078H20.0352V26.646H15.3772V43.9812H20.8619V36.4482C20.7893 35.4381 20.92 34.4237 21.2462 33.4655C21.6887 32.4829 22.6029 32.2957 23.4937 32.2957C23.8493 32.3017 24.2023 32.3588 24.5418 32.4654V26.377L23.7965 26.3068C21.5839 26.108 20.5592 27.804 20.0876 30.2078Z" fill="#003368"/>
<path d="M117.841 27.8041C117.439 27.3216 116.934 26.9364 116.364 26.6772C115.793 26.4179 115.172 26.2913 114.546 26.3068C113.651 26.264 112.764 26.4985 112.006 26.9787C111.247 27.4588 110.654 28.1614 110.307 28.9913C109.998 28.2003 109.459 27.5213 108.76 27.0426C108.061 26.564 107.234 26.308 106.388 26.308C105.543 26.308 104.716 26.564 104.017 27.0426C103.318 27.5213 102.779 28.2003 102.47 28.9913H102.418V26.6519H97.4335V43.9812H102.802V33.5707C102.802 32.2782 102.912 31.091 104.217 31.091C105.381 31.091 105.463 32.4829 105.463 33.5707V43.9812H110.837V34.3486C110.837 32.9566 110.779 31.1962 112.327 31.1962C113.603 31.1962 113.492 32.4478 113.492 33.5707V43.9812H118.878V32.6174C118.878 30.7868 118.878 29.0907 117.841 27.8041Z" fill="#003368"/>
<path d="M88.4378 26.3067C87.3602 26.2992 86.295 26.5368 85.3219 27.0017C84.3488 27.4666 83.4932 28.1468 82.8191 28.9912C81.4375 30.8867 80.7171 33.1871 80.7695 35.5358C80.6921 37.9199 81.5111 40.246 83.0636 42.0511C83.7985 42.8164 84.6879 43.4148 85.672 43.8062C86.6562 44.1976 87.7124 44.3729 88.7696 44.3203C92.1234 44.3203 95.1744 42.3903 96.0245 38.1793L90.8483 37.7758C90.627 39.2671 89.9341 39.8754 88.6881 39.8754C87.0287 39.8754 86.528 38.5185 86.528 36.6528H96.0245V35.7405C96.0245 30.0381 93.1482 26.3067 88.4378 26.3067ZM86.528 33.2782C86.528 31.6874 87.052 30.2954 88.496 30.2954C90.0448 30.2954 90.4873 31.5821 90.4873 33.2782H86.528Z" fill="#003368"/>
<path d="M33.7355 31.2781C34.3759 32.2723 34.3876 34.0795 34.3876 35.2317C34.3876 39.8755 33.4735 40.2147 32.4778 40.2147C31.4822 40.2147 30.568 39.8755 30.568 35.2317C30.568 34.062 30.568 32.2723 31.2202 31.2781H31.1794V26.4238C27.4123 27.0613 24.699 30.4651 24.699 35.4657C24.699 40.7294 28.1575 44.3204 32.4778 44.3204C36.7981 44.3204 40.2741 40.7235 40.2741 35.4657C40.2865 34.0344 40.0297 32.6136 39.5172 31.2781H33.7355Z" fill="#003368"/>
<path d="M79.5759 26.646H74.0911V42.5599C74.0911 43.9811 74.0096 45.069 72.5423 45.069C72.138 45.0461 71.7421 44.9427 71.3778 44.7648V49.6542C72.4823 49.8619 73.6023 49.9754 74.7258 49.9934C75.509 50.0362 76.2896 49.8698 76.9881 49.5113C77.6865 49.1528 78.2781 48.6149 78.7025 47.9523C79.6458 46.4258 79.5643 44.3554 79.5643 42.5599L79.5759 26.646Z" fill="#003368"/>
<path d="M14.7658 6.97151H9.99721L6.67839 11.6504L5.48478 13.5862V1.03522H0V24.3067H5.48478V19.5225L6.87053 17.3527L9.52559 24.3067H15.2607L10.4979 12.9429L14.7658 6.97151Z" fill="#FF1E00"/>
<path d="M24.2623 6.95975V16.9432C24.2941 17.5672 24.1949 18.1909 23.9712 18.7739C23.8727 19.0519 23.6937 19.2941 23.4571 19.4692C23.2205 19.6443 22.9372 19.7443 22.6436 19.7564C21.3976 19.7564 21.4209 18.5867 21.4209 17.4521V6.95975H15.9536V18.9435C15.9536 20.5752 16.0642 22.1017 17.0599 23.3182C17.4549 23.7608 17.943 24.1095 18.4888 24.3392C19.0347 24.5688 19.6245 24.6735 20.2157 24.6458C21.1878 24.692 22.1459 24.3993 22.9279 23.8174C23.7098 23.2355 24.2676 22.4001 24.5068 21.4525H24.5534V24.3066H29.7296V6.95975H24.2623Z" fill="#FF1E00"/>
<path d="M56.7983 6.95975V16.9432C56.8338 17.5664 56.7386 18.19 56.5189 18.7739C56.4204 19.0519 56.2414 19.2941 56.0048 19.4692C55.7682 19.6443 55.4849 19.7443 55.1913 19.7564C53.9453 19.7564 53.9744 18.5867 53.9744 17.4521V6.95975H48.4897V18.9435C48.4897 20.5752 48.6003 22.1017 49.5959 23.3182C49.9917 23.7598 50.48 24.1079 51.0256 24.3374C51.5713 24.567 52.1607 24.6723 52.7517 24.6458C53.7246 24.6922 54.6835 24.3998 55.4665 23.818C56.2494 23.2361 56.8083 22.4005 57.0487 21.4525H57.1011V24.3066H60.4258V20.8442H61.9512C62.0735 20.8442 62.1725 20.8442 62.2773 20.8442V6.95975H56.7983Z" fill="#FFCD00"/>
<path d="M41.5143 6.63217C39.6278 6.63217 38.0791 7.3457 37.4968 9.44533H37.4386V6.95969H32.3439V30.1083H37.8287V22.4408C38.176 23.1117 38.7015 23.6728 39.3469 24.062C39.9923 24.4512 40.7325 24.6533 41.4852 24.6458C43.4474 24.6458 44.9205 23.3532 45.8288 21.2887C46.5456 19.4252 46.8861 17.4371 46.8303 15.4401C46.8303 11.3812 45.5144 6.63217 41.5143 6.63217ZM40.8564 18.9434C40.6351 19.8616 40.1402 20.3705 39.36 20.3705C38.0325 20.3705 37.8694 18.7738 37.8694 17.5573V13.3931C37.7952 12.7878 37.9113 12.1743 38.2013 11.6385C38.3317 11.4302 38.5106 11.2568 38.7226 11.1335C38.9347 11.0102 39.1734 10.9407 39.4182 10.9309C41.165 10.9309 41.1359 14.3523 41.1359 15.7793C41.1551 16.841 41.0614 17.9017 40.8564 18.9434Z" fill="#FFCD00"/>
<path d="M106.528 6.63215C105.636 6.5883 104.751 6.82049 103.994 7.29739C103.238 7.77429 102.644 8.47295 102.295 9.29909C101.986 8.50812 101.447 7.82905 100.748 7.35041C100.049 6.87176 99.2227 6.61575 98.3767 6.61575C97.5308 6.61575 96.7045 6.87176 96.0055 7.35041C95.3065 7.82905 94.7673 8.50812 94.4582 9.29909H94.4233V6.95967H89.4159V24.3065H94.7901V13.8902C94.7901 12.6035 94.9007 11.4163 96.1991 11.4163C97.3636 11.4163 97.4452 12.8082 97.4452 13.8902V24.3065H102.819V14.6739C102.819 13.282 102.767 11.5157 104.316 11.5157C105.591 11.5157 105.48 12.7731 105.48 13.8902V24.3065H110.849V12.9428C110.849 11.1121 110.849 9.43361 109.824 8.12353C109.422 7.64114 108.917 7.25636 108.346 6.99807C107.776 6.73977 107.154 6.61467 106.528 6.63215Z" fill="#007EC3"/>
<path d="M117.399 9.16466C117.399 8.28152 116.45 8.28152 116.281 8.28152H114.744V11.2409H115.64V10.1706H116.054L116.52 11.2409H117.399L116.852 9.96006C117.016 9.90462 117.158 9.79717 117.257 9.6538C117.356 9.51042 117.405 9.33882 117.399 9.16466ZM115.972 9.56821H115.64V8.84299H116.025C116.409 8.84299 116.531 8.9775 116.531 9.15296C116.549 9.51557 116.182 9.56821 115.966 9.56821H115.972Z" fill="#007EC3"/>
<path d="M116.013 6.75498C115.422 6.75498 114.845 6.93095 114.354 7.26062C113.862 7.5903 113.48 8.05889 113.253 8.60712C113.027 9.15536 112.968 9.75862 113.084 10.3406C113.199 10.9226 113.483 11.4572 113.901 11.8768C114.319 12.2964 114.851 12.5822 115.43 12.698C116.01 12.8137 116.61 12.7543 117.156 12.5272C117.702 12.3001 118.168 11.9156 118.497 11.4222C118.825 10.9288 119 10.3487 119 9.7553C119.001 9.36107 118.924 8.97058 118.774 8.60621C118.624 8.24185 118.404 7.91079 118.127 7.63203C117.849 7.35327 117.52 7.1323 117.157 6.9818C116.794 6.83129 116.406 6.75421 116.013 6.75498ZM116.013 11.9368C115.584 11.9368 115.164 11.8089 114.806 11.5692C114.449 11.3295 114.171 10.9887 114.007 10.5901C113.842 10.1915 113.799 9.75287 113.883 9.3297C113.967 8.90653 114.174 8.51782 114.477 8.21273C114.781 7.90764 115.168 7.69987 115.589 7.6157C116.011 7.53152 116.447 7.57472 116.844 7.73984C117.241 7.90495 117.58 8.18456 117.819 8.54331C118.057 8.90206 118.185 9.32383 118.185 9.7553C118.183 10.3334 117.954 10.8874 117.547 11.2962C117.14 11.7049 116.589 11.9353 116.013 11.9368Z" fill="#007EC3"/>
<path d="M87.675 16.0601C87.675 10.3636 84.7929 6.63221 80.1058 6.63221C79.0259 6.61989 77.9573 6.85344 76.9801 7.31534C76.0029 7.77724 75.1426 8.45548 74.4638 9.29915C73.0846 11.1959 72.3644 13.4954 72.4143 15.8437C72.3418 18.2333 73.1741 20.5616 74.7433 22.359C75.4771 23.126 76.3662 23.7259 77.3505 24.1184C78.3349 24.5109 79.3916 24.6867 80.4493 24.6341C83.7972 24.6341 86.854 22.6982 87.7041 18.4931L82.5221 18.0837C82.3008 19.5809 81.608 20.1892 80.362 20.1892C78.7026 20.1892 78.2018 18.8323 78.2018 16.9666H87.7041L87.675 16.0601ZM78.1727 13.5862C78.1727 11.9895 78.7026 10.6034 80.1407 10.6034C81.6895 10.6034 82.132 11.8901 82.132 13.5862H78.1727Z" fill="#8CC63F"/>
<path d="M67.6398 0C67.0491 0 66.4716 0.175965 65.9804 0.505644C65.4892 0.835322 65.1063 1.30391 64.8803 1.85214C64.6542 2.40038 64.595 3.00364 64.7103 3.58565C64.8255 4.16765 65.11 4.70226 65.5277 5.12186C65.9455 5.54146 66.4777 5.82721 67.0571 5.94298C67.6365 6.05875 68.2371 5.99933 68.7829 5.77224C69.3287 5.54516 69.7952 5.1606 70.1234 4.6672C70.4516 4.1738 70.6268 3.59372 70.6268 3.00031C70.6268 2.20458 70.3121 1.44144 69.7519 0.878771C69.1917 0.316103 68.432 0 67.6398 0Z" fill="#8CC63F"/>
<path d="M70.3356 6.95975H64.8567V19.8266C64.8567 21.2478 64.7693 22.3356 63.3021 22.3356C62.7963 22.3212 62.294 22.2466 61.8057 22.1134V26.8975C63.0115 27.1919 64.2509 27.3237 65.4913 27.2894C66.2791 27.3299 67.0634 27.1596 67.7642 26.7958C68.4649 26.4321 69.057 25.8879 69.4797 25.219C70.423 23.6925 70.3356 21.6221 70.3356 19.8266V6.95975Z" fill="#8CC63F"/>
</g>
<defs>
<clipPath id="clip0_5734_7601">
<rect width="119" height="50" fill="white"/>
</clipPath>
</defs>
</svg>
